<?xml version="1.0" standalone="no"?><!DOCTYPE svg PUBLIC "-//W3C//DTD SVG 1.1//EN" "http://www.w3.org/Graphics/SVG/1.1/DTD/svg11.dtd"><svg t="1779287730852" class="icon" viewBox="0 0 1024 1024" version="1.1" xmlns="http://www.w3.org/2000/svg" p-id="2132" xmlns:xlink="http://www.w3.org/1999/xlink" width="200" height="200"><path d="M487.867733 148.292267L148.309333 487.867733c-106.717867 106.7008-106.717867 281.105067 0 387.822934 106.717867 106.7008 281.122133 106.7008 387.822934 0L875.690667 536.132267c106.717867-106.717867 106.717867-281.122133 0-387.84-106.7008-106.7008-281.122133-106.7008-387.822934 0z m339.5584 48.264533c80.042667 80.059733 80.042667 211.2512 0 291.310933L487.867733 827.426133c-80.042667 80.042667-211.234133 80.042667-291.293866 0-80.042667-80.042667-80.042667-211.234133 0-291.2768l339.5584-339.592533c80.042667-80.042667 211.2512-80.042667 291.293866 0z" fill="#444444" p-id="2133"></path><path d="M450.798933 402.5344l181.026134 181.009067-24.132267 24.149333a34.133333 34.133333 0 0 1-48.2816 0L426.666667 474.9312A34.133333 34.133333 0 0 1 426.666667 426.666667l24.132266-24.132267z" fill="#00B386" p-id="2134"></path></svg>